<svg xmlns="http://www.w3.org/2000/svg" width="66" height="66" viewBox="0 0 24 24" class="duoicon duoicon-align-center" style="color: rgb(99, 102, 241);"><path fill="currentColor" d="M17 17.5a1.5 1.5 0 0 1 .144 2.993L17 20.5H7a1.5 1.5 0 0 1-.144-2.993L7 17.5h10Z" class="duoicon-secondary-layer" opacity=".3"></path><path fill="currentColor" d="M20 2.5a1.5 1.5 0 0 1 .144 2.993L20 5.5H4a1.5 1.5 0 0 1-.144-2.993L4 2.5h16Z" class="duoicon-primary-layer"></path><path fill="currentColor" d="M17 7.5a1.5 1.5 0 0 1 .144 2.993L17 10.5H7a1.5 1.5 0 0 1-.144-2.993L7 7.5h10Z" class="duoicon-secondary-layer" opacity=".3"></path><path fill="currentColor" d="M20 12.5a1.5 1.5 0 0 1 0 3H4a1.5 1.5 0 0 1 0-3h16Z" class="duoicon-primary-layer"></path></svg>