<svg xmlns="http://www.w3.org/2000/svg" width="66" height="66" viewBox="0 0 24 24" class="duoicon duoicon-menu" style="color: rgb(99, 102, 241);"><path fill="currentColor" d="M4 18a.965.965 0 0 1-.712-.288A.965.965 0 0 1 3 17c0-.283.096-.52.288-.712A.965.965 0 0 1 4 16h11c.283 0 .521.096.713.288A.967.967 0 0 1 16 17a.97.97 0 0 1-.287.712A.968.968 0 0 1 15 18H4Z" class="duoicon-primary-layer"></path><path fill="currentColor" d="m17.4 12 2.9 2.9a.948.948 0 0 1 .275.7.948.948 0 0 1-.275.7.948.948 0 0 1-.7.275.948.948 0 0 1-.7-.275l-3.6-3.6a.96.96 0 0 1-.3-.7c0-.267.1-.5.3-.7l3.6-3.6a.948.948 0 0 1 .7-.275.95.95 0 0 1 .7.275.948.948 0 0 1 .275.7.948.948 0 0 1-.275.7L17.4 12Z" class="duoicon-secondary-layer" opacity="1"></path><path fill="currentColor" d="M4 8a.967.967 0 0 1-.712-.287A.968.968 0 0 1 3 7c0-.283.096-.521.288-.713A.967.967 0 0 1 4 6h11a.97.97 0 0 1 .713.287A.97.97 0 0 1 16 7a.97.97 0 0 1-.287.713A.97.97 0 0 1 15 8H4Z" class="duoicon-primary-layer"></path><path fill="currentColor" d="M4 13a.965.965 0 0 1-.712-.288A.965.965 0 0 1 3 12c0-.283.096-.521.288-.713A.967.967 0 0 1 4 11h8a.97.97 0 0 1 .713.287A.97.97 0 0 1 13 12a.97.97 0 0 1-.287.712A.968.968 0 0 1 12 13H4Z" class="duoicon-secondary-layer" opacity=".7"></path></svg>